<svg width="127" height="124" viewBox="0 0 127 124" fill="none" xmlns="http://www.w3.org/2000/svg">
<rect x="43" y="34" width="84" height="84" rx="42" fill="#9BDDA2"/>
<path d="M116.225 48.6125C114.031 46.3062 111.781 43.9437 110.881 41.75C109.981 39.5563 109.981 36.6875 109.925 33.4813C109.869 28.25 109.756 22.2313 105.763 18.2375C101.769 14.2438 95.75 14.1312 90.5187 14.075C87.3125 14.0187 84.275 13.9625 82.25 13.1187C80.225 12.275 77.6937 9.96875 75.3875 7.775C71.675 4.175 67.4 0.125 62 0.125C56.6 0.125 52.325 4.175 48.6125 7.775C46.3062 9.96875 43.9437 12.2187 41.75 13.1187C39.5563 14.0187 36.6875 14.0187 33.4813 14.075C28.25 14.1312 22.2313 14.2438 18.2375 18.2375C14.2438 22.2313 14.1312 28.25 14.075 33.4813C14.0187 36.6875 13.9625 39.725 13.1187 41.75C12.275 43.775 9.96875 46.3062 7.775 48.6125C4.175 52.325 0.125 56.6 0.125 62C0.125 67.4 4.175 71.675 7.775 75.3875C9.96875 77.6937 12.2187 80.0563 13.1187 82.25C14.0187 84.4437 14.0187 87.3125 14.075 90.5187C14.1312 95.75 14.2438 101.769 18.2375 105.763C22.2313 109.756 28.25 109.869 33.4813 109.925C36.6875 109.981 39.725 110.037 41.75 110.881C43.775 111.725 46.3062 114.031 48.6125 116.225C52.325 119.825 56.6 123.875 62 123.875C67.4 123.875 71.675 119.825 75.3875 116.225C77.6937 114.031 80.0563 111.781 82.25 110.881C84.4437 109.981 87.3125 109.981 90.5187 109.925C95.75 109.869 101.769 109.756 105.763 105.763C109.756 101.769 109.869 95.75 109.925 90.5187C109.981 87.3125 110.037 84.275 110.881 82.25C111.725 80.225 114.031 77.6937 116.225 75.3875C119.825 71.675 123.875 67.4 123.875 62C123.875 56.6 119.825 52.325 116.225 48.6125ZM111.388 70.7188C108.744 73.475 106.044 76.2875 104.638 79.6625C103.231 83.0375 103.231 86.6937 103.175 90.4062C103.119 94.1188 103.062 98.9 100.981 100.981C98.9 103.062 94.5687 103.119 90.4062 103.175C86.2438 103.231 82.8687 103.287 79.6625 104.638C76.4562 105.988 73.475 108.744 70.7188 111.388C67.9625 114.031 64.7 117.125 62 117.125C59.3 117.125 56.2625 114.2 53.2812 111.388C50.3 108.575 47.7125 106.044 44.3375 104.638C40.9625 103.231 37.3063 103.231 33.5938 103.175C29.8813 103.119 25.1 103.062 23.0188 100.981C20.9375 98.9 20.8813 94.5687 20.825 90.4062C20.7687 86.2438 20.7125 82.8687 19.3625 79.6625C18.0125 76.4562 15.2563 73.475 12.6125 70.7188C9.96875 67.9625 6.875 64.7 6.875 62C6.875 59.3 9.8 56.2625 12.6125 53.2812C15.425 50.3 17.9563 47.7125 19.3625 44.3375C20.7688 40.9625 20.7687 37.3063 20.825 33.5938C20.8813 29.8813 20.9375 25.1 23.0188 23.0188C25.1 20.9375 29.4312 20.8813 33.5938 20.825C37.7562 20.7687 41.1312 20.7125 44.3375 19.3625C47.5438 18.0125 50.525 15.2563 53.2812 12.6125C56.0375 9.96875 59.3 6.875 62 6.875C64.7 6.875 67.7375 9.8 70.7188 12.6125C73.7 15.425 76.2875 17.9563 79.6625 19.3625C83.0375 20.7688 86.6937 20.7687 90.4062 20.825C94.1188 20.8813 98.9 20.9375 100.981 23.0188C103.062 25.1 103.119 29.4312 103.175 33.5938C103.231 37.7562 103.287 41.1312 104.638 44.3375C105.988 47.5438 108.744 50.525 111.388 53.2812C114.031 56.0375 117.125 59.3 117.125 62C117.125 64.7 114.2 67.7375 111.388 70.7188ZM89.1688 46.1938C89.4744 46.5099 89.7143 46.8836 89.8743 47.2932C90.0343 47.7028 90.1113 48.1402 90.1008 48.5798C90.0904 49.0194 89.9926 49.4526 89.8133 49.8541C89.634 50.2556 89.3766 50.6175 89.0563 50.9188L56.0938 82.4188C55.4521 83.0195 54.6101 83.3603 53.7313 83.375C52.8661 83.3746 52.0366 83.0307 51.425 82.4188L34.9438 66.6688C34.3023 66.0571 33.93 65.2157 33.9089 64.3295C33.8878 63.4434 34.2196 62.5852 34.8312 61.9438C35.4429 61.3023 36.2843 60.93 37.1705 60.9089C38.0566 60.8878 38.9148 61.2196 39.5562 61.8312L53.7313 75.3312L84.4437 46.0812C84.7599 45.7756 85.1336 45.5357 85.5432 45.3757C85.9528 45.2157 86.3902 45.1387 86.8298 45.1492C87.2694 45.1596 87.7026 45.2574 88.1041 45.4367C88.5056 45.616 88.8675 45.8734 89.1688 46.1938Z" fill="white"/>
</svg>
