<svg width="27" height="26" viewBox="0 0 27 26" fill="none" xmlns="http://www.w3.org/2000/svg">
<path d="M25.001 25C24.8457 25.0002 24.6926 24.9641 24.5537 24.8946C24.4148 24.8252 24.294 24.7243 24.201 24.6L23.386 23.514C22.6138 22.4846 22.0714 21.3015 21.7954 20.0446C21.5194 18.7877 21.5162 17.4862 21.786 16.228L23.259 9.35201C23.469 8.37333 23.4665 7.36099 23.2517 6.38335C23.0369 5.40572 22.6148 4.48556 22.014 3.685L21.2 2.6C21.1212 2.49495 21.0639 2.3754 21.0313 2.24819C20.9987 2.12097 20.9915 1.98858 21.01 1.85858C21.0286 1.72858 21.0726 1.60351 21.1395 1.49051C21.2064 1.37751 21.2949 1.2788 21.4 1.2C21.5051 1.12121 21.6246 1.06388 21.7518 1.03129C21.879 0.998699 22.0114 0.991483 22.1414 1.01005C22.2714 1.02863 22.3965 1.07262 22.5095 1.13953C22.6225 1.20644 22.7212 1.29495 22.8 1.4L23.615 2.486C24.387 3.5153 24.9294 4.6982 25.2054 5.95491C25.4814 7.21163 25.4847 8.51292 25.215 9.771L23.741 16.647C23.531 17.6257 23.5335 18.638 23.7483 19.6157C23.9631 20.5933 24.3852 21.5135 24.986 22.314L25.8 23.4C25.9114 23.5485 25.9792 23.7251 25.9959 23.91C26.0127 24.0948 25.9776 24.2807 25.8947 24.4468C25.8117 24.6128 25.6842 24.7526 25.5264 24.8503C25.3685 24.948 25.1866 24.9998 25.001 25ZM20.001 25C19.8457 25.0002 19.6926 24.9641 19.5537 24.8946C19.4148 24.8252 19.294 24.7243 19.201 24.6L18.386 23.514C17.6138 22.4846 17.0714 21.3015 16.7954 20.0446C16.5194 18.7877 16.5162 17.4862 16.786 16.228L18.259 9.35201C18.469 8.37333 18.4665 7.36099 18.2517 6.38335C18.0369 5.40572 17.6148 4.48556 17.014 3.685L16.2 2.6C16.1212 2.49495 16.0639 2.3754 16.0313 2.24819C15.9987 2.12097 15.9915 1.98858 16.01 1.85858C16.0286 1.72858 16.0726 1.60351 16.1395 1.49051C16.2064 1.37751 16.2949 1.2788 16.4 1.2C16.5051 1.12121 16.6246 1.06388 16.7518 1.03129C16.879 0.998699 17.0114 0.991483 17.1414 1.01005C17.2714 1.02863 17.3965 1.07262 17.5095 1.13953C17.6225 1.20644 17.7212 1.29495 17.8 1.4L18.615 2.486C19.387 3.5153 19.9294 4.6982 20.2054 5.95491C20.4814 7.21163 20.4847 8.51292 20.215 9.771L18.741 16.647C18.531 17.6257 18.5335 18.638 18.7483 19.6157C18.9631 20.5933 19.3852 21.5135 19.986 22.314L20.8 23.4C20.9114 23.5485 20.9792 23.7251 20.9959 23.91C21.0127 24.0948 20.9776 24.2807 20.8947 24.4468C20.8117 24.6128 20.6842 24.7526 20.5264 24.8503C20.3685 24.948 20.1866 24.9998 20.001 25ZM15.001 25C14.8457 25.0002 14.6926 24.9641 14.5537 24.8946C14.4148 24.8252 14.294 24.7243 14.201 24.6L13.386 23.514C12.6138 22.4846 12.0714 21.3015 11.7954 20.0446C11.5194 18.7877 11.5162 17.4862 11.786 16.228L13.259 9.35201C13.469 8.37333 13.4665 7.36099 13.2517 6.38335C13.0369 5.40572 12.6148 4.48556 12.014 3.685L11.2 2.6C11.1212 2.49495 11.0639 2.3754 11.0313 2.24819C10.9987 2.12097 10.9915 1.98858 11.0101 1.85858C11.0286 1.72858 11.0726 1.60351 11.1395 1.49051C11.2064 1.37751 11.2949 1.2788 11.4 1.2C11.5051 1.12121 11.6246 1.06388 11.7518 1.03129C11.879 0.998699 12.0114 0.991483 12.1414 1.01005C12.2714 1.02863 12.3965 1.07262 12.5095 1.13953C12.6225 1.20644 12.7212 1.29495 12.8 1.4L13.614 2.486C14.3862 3.51522 14.9287 4.69809 15.2049 5.9548C15.4811 7.21151 15.4845 8.51285 15.215 9.771L13.741 16.647C13.531 17.6257 13.5335 18.638 13.7483 19.6157C13.9631 20.5933 14.3852 21.5135 14.986 22.314L15.8 23.4C15.9114 23.5485 15.9792 23.7251 15.9959 23.91C16.0127 24.0948 15.9776 24.2807 15.8947 24.4468C15.8117 24.6128 15.6842 24.7526 15.5264 24.8503C15.3685 24.948 15.1866 24.9998 15.001 25ZM10.001 25C9.84573 25.0002 9.69256 24.9641 9.55368 24.8946C9.4148 24.8252 9.29404 24.7243 9.201 24.6L8.386 23.514C7.61381 22.4846 7.07141 21.3015 6.7954 20.0446C6.51939 18.7877 6.51618 17.4862 6.786 16.228L8.259 9.35201C8.46896 8.37333 8.46646 7.36099 8.25169 6.38335C8.03691 5.40572 7.61484 4.48556 7.014 3.685L6.2 2.6C6.12121 2.49495 6.06388 2.3754 6.03129 2.24819C5.99869 2.12097 5.99148 1.98858 6.01005 1.85858C6.02862 1.72858 6.07262 1.60351 6.13953 1.49051C6.20643 1.37751 6.29494 1.2788 6.4 1.2C6.50506 1.12121 6.62461 1.06388 6.75182 1.03129C6.87903 0.998699 7.01142 0.991483 7.14142 1.01005C7.27142 1.02863 7.39649 1.07262 7.50949 1.13953C7.62249 1.20644 7.72121 1.29495 7.8 1.4L8.615 2.486C9.38705 3.5153 9.92937 4.6982 10.2054 5.95491C10.4814 7.21163 10.4847 8.51292 10.215 9.771L8.741 16.647C8.53104 17.6257 8.53354 18.638 8.74831 19.6157C8.96309 20.5933 9.38516 21.5135 9.986 22.314L10.8 23.4C10.9114 23.5485 10.9792 23.7251 10.9959 23.91C11.0127 24.0948 10.9776 24.2807 10.8947 24.4468C10.8117 24.6128 10.6842 24.7526 10.5264 24.8503C10.3685 24.948 10.1866 24.9998 10.001 25ZM5.001 25C4.84556 25.0003 4.69219 24.9643 4.55313 24.8949C4.41406 24.8254 4.29314 24.7245 4.2 24.6L3.385 23.514C2.61281 22.4846 2.07041 21.3015 1.7944 20.0446C1.51839 18.7877 1.51518 17.4862 1.785 16.228L3.259 9.35201C3.46896 8.37333 3.46646 7.36099 3.25169 6.38335C3.03691 5.40572 2.61484 4.48556 2.014 3.685L1.2 2.6C1.12121 2.49495 1.06388 2.3754 1.03129 2.24819C0.998695 2.12097 0.991479 1.98858 1.01005 1.85858C1.04756 1.59603 1.18783 1.35913 1.4 1.2C1.61217 1.04087 1.87887 0.972547 2.14142 1.01005C2.40397 1.04756 2.64087 1.18783 2.8 1.4L3.615 2.486C4.38705 3.5153 4.92937 4.6982 5.20538 5.95491C5.48139 7.21163 5.48467 8.51292 5.215 9.771L3.741 16.647C3.53104 17.6257 3.53354 18.638 3.74831 19.6157C3.96309 20.5933 4.38516 21.5135 4.986 22.314L5.8 23.4C5.91138 23.5485 5.97922 23.7251 5.99594 23.91C6.01265 24.0948 5.97758 24.2807 5.89465 24.4468C5.81172 24.6128 5.6842 24.7526 5.52637 24.8503C5.36854 24.948 5.18663 24.9998 5.001 25Z" fill="#9D9EA2" stroke="white"/>
</svg>
