<svg width="27" height="26" viewBox="0 0 27 26" fill="none" xmlns="http://www.w3.org/2000/svg">
<path d="M11.1563 19.4787C15.9368 19.4787 19.8122 15.6033 19.8122 10.8228C19.8122 6.04234 15.9368 2.16699 11.1563 2.16699C6.37584 2.16699 2.50049 6.04234 2.50049 10.8228C2.50049 15.6033 6.37584 19.4787 11.1563 19.4787Z" fill="#05422C" stroke="#05422C" stroke-width="1.5" stroke-linecap="round" stroke-linejoin="round"/>
<path d="M14.395 21.5363C15.37 22.9122 16.9625 23.8113 18.7825 23.8113C21.74 23.8113 24.145 21.4063 24.145 18.4488C24.145 16.6505 23.2567 15.058 21.9025 14.083" stroke="#C3D2CC" stroke-width="1.5" stroke-linecap="round" stroke-linejoin="round"/>
<path d="M9.00049 12.3498C9.00049 13.184 9.65049 13.8665 10.4413 13.8665H12.0663C12.7597 13.8665 13.323 13.2706 13.323 12.5448C13.323 11.754 12.9763 11.4723 12.4672 11.2881L9.86716 10.3781C9.34716 10.194 9.00049 9.91231 9.00049 9.12147C9.00049 8.39564 9.56382 7.7998 10.2572 7.7998H11.8822C12.6838 7.81064 13.3338 8.48231 13.3338 9.31647" stroke="white" stroke-width="1.5" stroke-linecap="round" stroke-linejoin="round"/>
<path d="M11.1665 13.9209V14.7226" stroke="white" stroke-width="1.5" stroke-linecap="round" stroke-linejoin="round"/>
<path d="M11.1665 6.94434V7.78934" stroke="white" stroke-width="1.5" stroke-linecap="round" stroke-linejoin="round"/>
</svg>
