<svg width="26" height="26" viewBox="0 0 26 26" fill="none" xmlns="http://www.w3.org/2000/svg">
<path d="M23.292 17.292C23.3095 17.292 23.3182 17.2978 23.323 17.3026C23.3278 17.3074 23.3337 17.3161 23.3337 17.3337V18.417C23.3337 19.7819 22.3464 20.9102 21.0449 21.1287C20.7821 19.318 19.2146 17.917 17.3337 17.917C15.4395 17.917 13.8631 19.3378 13.617 21.167H12.3836C12.1375 19.3378 10.5612 17.917 8.66699 17.917C6.78603 17.917 5.21852 19.318 4.95573 21.1287C3.65424 20.9102 2.66699 19.7819 2.66699 18.417V16.2503C2.66699 15.9306 2.93063 15.667 3.25033 15.667H13.542C15.3131 15.667 16.7503 14.2298 16.7503 12.4587V6.50033C16.7503 6.18063 17.014 5.91699 17.3337 5.91699H18.2437C18.8405 5.91699 19.3925 6.24024 19.6954 6.76078C19.6957 6.76126 19.696 6.76174 19.6963 6.76223L20.2023 7.64779C18.6107 7.83652 17.3753 9.19156 17.3753 10.8337V14.0837C17.3753 15.8548 18.8125 17.292 20.5837 17.292H23.292Z" fill="#05422C" stroke="#05422C"/>
<path d="M10.3333 21.6667C10.3333 22.5871 9.58714 23.3333 8.66667 23.3333C7.74619 23.3333 7 22.5871 7 21.6667C7 20.7462 7.74619 20 8.66667 20C9.58714 20 10.3333 20.7462 10.3333 21.6667Z" fill="#C3D2CC" stroke="#C3D2CC"/>
<path d="M19.0003 21.6667C19.0003 22.5871 18.2541 23.3333 17.3337 23.3333C16.4132 23.3333 15.667 22.5871 15.667 21.6667C15.667 20.7462 16.4132 20 17.3337 20C18.2541 20 19.0003 20.7462 19.0003 21.6667Z" fill="#C3D2CC" stroke="#C3D2CC"/>
<path d="M23.8333 13.5742V15.1667H20.5833C19.9875 15.1667 19.5 14.6792 19.5 14.0833V10.8333C19.5 10.2375 19.9875 9.75 20.5833 9.75H21.9808L23.5517 12.5017C23.7358 12.8267 23.8333 13.195 23.8333 13.5742Z" fill="#C3D2CC"/>
<path d="M14.1693 2.16699H6.16352C4.22435 2.16699 2.59935 3.55366 2.24185 5.39533H6.97602C7.38768 5.39533 7.71268 5.73116 7.71268 6.14283C7.71268 6.55449 7.38768 6.87949 6.97602 6.87949H2.16602V8.37449H4.98268C5.39435 8.37449 5.73018 8.71033 5.73018 9.12199C5.73018 9.53366 5.39435 9.85866 4.98268 9.85866H2.16602V11.3537H3.00018C3.41185 11.3537 3.74768 11.6895 3.74768 12.1012C3.74768 12.5128 3.41185 12.8378 3.00018 12.8378H2.16602V13.087C2.16602 13.6828 2.65352 14.1703 3.24935 14.1703H13.1618C14.2668 14.1703 15.166 13.2712 15.166 12.1662V3.16366C15.166 2.61116 14.7218 2.16699 14.1693 2.16699Z" fill="#05422C"/>
<path d="M2.24217 5.39551H2.07967H1.01801C0.606341 5.39551 0.270508 5.73134 0.270508 6.14301C0.270508 6.55467 0.606341 6.87967 1.01801 6.87967H2.00384H2.16634V6.16467C2.16634 5.90467 2.19884 5.64467 2.24217 5.39551Z" fill="#05422C"/>
<path d="M2.00384 8.37402H1.01801C0.606341 8.37402 0.270508 8.70986 0.270508 9.12152C0.270508 9.53319 0.606341 9.85819 1.01801 9.85819H2.00384H2.16634V8.37402H2.00384Z" fill="#05422C"/>
<path d="M2.00384 11.3535H1.01801C0.606341 11.3535 0.270508 11.6893 0.270508 12.101C0.270508 12.5127 0.606341 12.8377 1.01801 12.8377H2.00384H2.16634V11.3535H2.00384Z" fill="#05422C"/>
</svg>
